<svg width="80" height="80" viewBox="0 0 80 80" fill="none" xmlns="http://www.w3.org/2000/svg">
<circle cx="40" cy="40" r="40" fill="#FFD600"/>
<path d="M47 55.5752C47 59.5142 43.6355 62.7188 39.5 62.7188C35.3645 62.7188 32 59.5142 32 55.5752C32 51.6362 35.3645 48.4316 39.5 48.4316C43.6355 48.4316 47 51.6362 47 55.5752ZM32.8681 19.2501L34.1431 43.5382C34.203 44.6788 35.1913 45.5742 36.3903 45.5742H42.6097C43.8087 45.5742 44.797 44.6788 44.8569 43.5382L46.1319 19.2501C46.1961 18.026 45.1715 17 43.8847 17H35.1153C33.8285 17 32.8039 18.026 32.8681 19.2501Z" fill="white"/>
</svg>
